<!DOCTYPE svg PUBLIC "-//W3C//DTD SVG 1.1//EN" "http://www.w3.org/Graphics/SVG/1.1/DTD/svg11.dtd">
<!-- Uploaded to: SVG Repo, www.svgrepo.com, Transformed by: SVG Repo Mixer Tools -->
<svg fill="#000000" width="800px" height="800px" viewBox="0 0 512 512" xmlns="http://www.w3.org/2000/svg">
<g id="SVGRepo_bgCarrier" stroke-width="0"/>
<g id="SVGRepo_tracerCarrier" stroke-linecap="round" stroke-linejoin="round"/>
<g id="SVGRepo_iconCarrier"> <g id="Exercise_application_calculate"> <path d="M420.0006,327.7105H295.9069a6,6,0,0,0,0,12H420.0006a6,6,0,0,0,0-12Z"/> <path d="M420.0006,352.16H295.9069a6,6,0,0,0,0,12H420.0006a6,6,0,0,0,0-12Z"/> <path d="M298.4581,254.7823a4.75,4.75,0,0,0-4.75,4.75v32.9385a4.75,4.75,0,0,0,9.5,0v-9.63h5.56l10.4473,12.0312a4.75,4.75,0,1,0,7.1728-6.2285l-9.26-10.6645,8.51-10.5474a4.75,4.75,0,1,0-7.3935-5.9658l-9.5816,11.875h-5.4551V259.5323A4.75,4.75,0,0,0,298.4581,254.7823Z"/> <path d="M412.26,259.5323v32.9385a4.75,4.75,0,1,0,9.5,0V259.5323a4.75,4.75,0,0,0-9.5,0Z"/> <path d="M348.298,276.0191h7.499a4.75,4.75,0,0,0,0-9.5h-7.499a15.3509,15.3509,0,1,0,0,30.7017h7.499a4.75,4.75,0,0,0,0-9.5h-7.499a5.8509,5.8509,0,1,1,0-11.7017Z"/> <path d="M396.3561,280.9937a15.5491,15.5491,0,0,0-31.0982,0v.6782a15.5409,15.5409,0,0,0,25.44,11.9887,12.5474,12.5474,0,0,0,8.7563,3.56h1.5855a4.75,4.75,0,0,0,0-9.5h-1.5855a3.1013,3.1013,0,0,1-3.0976-3.0982v-3.6289Zm-15.5493,6.7271a6.0556,6.0556,0,0,1-6.0489-6.0489v-.6782a6.0491,6.0491,0,0,1,12.0982,0v.6782A6.056,6.056,0,0,1,380.8068,287.7208Z"/> <path d="M411.5577,144.8648a6,6,0,1,0,11.5733-3.1719,67.2464,67.2464,0,0,0-5.5093-13.8418,6,6,0,0,0-10.5889,5.6465A55.1861,55.1861,0,0,1,411.5577,144.8648Z"/> <path d="M358.045,227.044a67.7459,67.7459,0,0,0,67.2828-62.293,6,6,0,1,0-11.9659-.91,55.4827,55.4827,0,1,1-17.4228-44.7984,6,6,0,1,0,8.1982-8.7627A67.48,67.48,0,1,0,358.045,227.044Z"/> <path d="M373.91,136.61l-1.04,2.0466a3.7313,3.7313,0,0,1-6.7439-.18,79.3942,79.3942,0,0,0-12.0491-19.1017,4.7609,4.7609,0,0,0-8.4043,3.037c-.0879,5.834-1.4209,12.5087-5.8194,17.7448-13.6015,16.1925-12.2751,31.778-12.2751,31.778,0,14.0869,13.323,25.5065,29.7581,25.5065,11.9414,0,22.2343-6.0315,26.9731-14.7317l.0029.0036a42.648,42.648,0,0,0,2.7823-29.4131,89.8119,89.8119,0,0,0-6.54-16.72A3.7332,3.7332,0,0,0,373.91,136.61ZM358.0511,191.112a14.4494,14.4494,0,0,1-14.4494-14.4495c0-.2791.01-.5557.0254-.831.3362-7.8061,5.7217-14.8315,9.8144-19.08a6.3954,6.3954,0,0,1,9.2193,0c4.093,4.25,9.48,11.2765,9.8147,19.0831.0153.2744.0251.55.0251.8284A14.4494,14.4494,0,0,1,358.0511,191.112Z"/> <path d="M146.7272,312.0144a5.1,5.1,0,0,0-5.1,5.1v.9114a1.4248,1.4248,0,0,1-1.4229,1.4229h-7.5449a5.1,5.1,0,1,0,0,10.2h7.5449a11.6361,11.6361,0,0,0,11.6228-11.6229v-.9114A5.1,5.1,0,0,0,146.7272,312.0144Z"/> <path d="M177.7494,319.4487H170.204a1.4243,1.4243,0,0,1-1.4224-1.4229v-.9114a5.1,5.1,0,1,0-10.2,0v.9114a11.6355,11.6355,0,0,0,11.6223,11.6229h7.5454a5.1,5.1,0,1,0,0-10.2Z"/> <path d="M146.7272,339.5659H132.6593a5.1,5.1,0,1,0,0,10.2h14.0679a5.1,5.1,0,0,0,0-10.2Z"/> <path d="M177.7494,339.5659H163.6818a5.1,5.1,0,1,0,0,10.2h14.0676a5.1,5.1,0,1,0,0-10.2Z"/> <path d="M166.1854,251.649a2.9193,2.9193,0,0,0-2.7754-3.8156H147.0013a2.9193,2.9193,0,0,0-2.7753,3.8157c1.0664,3.3431,3.8278,7.6719,10.98,7.6719S165.1193,254.9921,166.1854,251.649Z"/> <path d="M450.8439,15.8447h-185.78a31.2326,31.2326,0,0,0-31.2324,31.2326v146.099h-9.4971a13.2975,13.2975,0,0,0-12.8506,9.9959h-5.875v-9.4566a4.8289,4.8289,0,0,0-4.8288-4.8288h-4.993a4.8288,4.8288,0,0,0-4.8288,4.8288v31.1532a4.8288,4.8288,0,0,0,4.8288,4.8288h4.993a4.829,4.829,0,0,0,4.8288-4.8288v-9.4566h4.563a13.32,13.32,0,0,0,9.4429,9.9946l4.8974,1.3423a1.2761,1.2761,0,0,1,.8946,1.55l-6.7178,25.6533a1.26,1.26,0,0,1-.8545.89,94.3535,94.3535,0,0,0-21.6309,9.9952,22.2442,22.2442,0,0,1-16.5292,2.666c-.3809-.0864-.7334-.1729-1.0694-.2583,6.1983-5.5454,9.5615-13.8169,9.5615-23.7442,0-17.3364-14.8144-31.44-33.0234-31.44s-33.0225,14.104-33.0225,31.44c0,9.8326,3.3008,18.0415,9.3858,23.5855-.5537.14-1.1319.2842-1.7754.43a22.0693,22.0693,0,0,1-16.39-2.6284,94.4657,94.4657,0,0,0-21.72-10.0469,1.2558,1.2558,0,0,1-.8486-.89l-6.7178-25.6518a1.2777,1.2777,0,0,1,.8955-1.5508l4.8965-1.3418a13.32,13.32,0,0,0,9.4429-9.9946h5.2075v9.4566a4.8288,4.8288,0,0,0,4.8288,4.8288h4.993a4.8288,4.8288,0,0,0,4.8288-4.8288V193.7156a4.8287,4.8287,0,0,0-4.8288-4.8288h-4.993a4.8288,4.8288,0,0,0-4.8288,4.8288v9.4566H97.9767a13.2941,13.2941,0,0,0-12.8486-9.9959H64.4415a13.2073,13.2073,0,0,0-12.8628,9.9959H44.5739v-9.4566a4.8288,4.8288,0,0,0-4.8289-4.8288H34.7521a4.8288,4.8288,0,0,0-4.8289,4.8288v31.1532a4.8289,4.8289,0,0,0,4.8289,4.8288H39.745a4.8289,4.8289,0,0,0,4.8289-4.8288v-9.4566h5.2275a298.3037,298.3037,0,0,0-1.7974,52.1469,30.5167,30.5167,0,0,0,15.5274,24.7828L103.465,315.003a10.7111,10.7111,0,0,1,5.3925,8.4453l1.4747,17.9888a46.1351,46.1351,0,0,1-1.9307,17.53l-36.4229,117.3a15.3405,15.3405,0,0,0,14.65,19.8881h29.7188A19.1711,19.1711,0,0,0,135.0509,480.92l19.8008-95.8477L174.4249,480.88a19.1659,19.1659,0,0,0,18.7119,15.2754h29.6954a15.3405,15.3405,0,0,0,14.65-19.8881l-36.4228-117.3a46.1331,46.1331,0,0,1-1.9307-17.53l1.4766-17.99a10.7067,10.7067,0,0,1,5.3906-8.4443l27.835-15.7951V414.3754a31.2325,31.2325,0,0,0,31.2324,31.2326h185.78a31.2326,31.2326,0,0,0,31.2329-31.2326V47.0773A31.2327,31.2327,0,0,0,450.8439,15.8447ZM376.3707,31.4615h11.29a6,6,0,0,1,0,12h-11.29a6,6,0,0,1,0-12Zm-48.124,0h28.2256a6,6,0,0,1,0,12H328.2467a6,6,0,0,1,0-12ZM249.4786,266.8492a18.5632,18.5632,0,0,1-9.47,15.0561l-39.9355,22.6612a22.6967,22.6967,0,0,0-11.4278,17.9008L187.17,340.4556a58.0591,58.0591,0,0,0,2.4288,22.07l36.4228,117.3a3.3392,3.3392,0,0,1-3.1894,4.33H193.1368a7.1222,7.1222,0,0,1-6.9541-5.6777L166.4923,382.1a11.7809,11.7809,0,0,0-11.63-9.5054h-.0136a11.78,11.78,0,0,0-11.6377,9.4805L123.299,478.4922a7.1261,7.1261,0,0,1-6.9512,5.6631H86.629a3.3392,3.3392,0,0,1-3.1894-4.33l36.4228-117.3a58.0556,58.0556,0,0,0,2.4287-22.07l-1.4746-17.9888a22.7,22.7,0,0,0-11.43-17.9008L69.4532,281.9048a18.5608,18.5608,0,0,1-9.4707-15.0556,292.0531,292.0531,0,0,1,3.2-60.5928,1.2716,1.2716,0,0,1,1.2588-1.08H85.1281a1.2762,1.2762,0,0,1,1.249,1.0264L87.588,212.36a1.2785,1.2785,0,0,1-.9131,1.4737l-4.8955,1.3418a13.3205,13.3205,0,0,0-9.334,16.163l6.7178,25.6529a13.1159,13.1159,0,0,0,1.0859,2.7477,19.7381,19.7381,0,0,0-1.309,7.8779,5.0954,5.0954,0,0,0,5.09,4.947h.1528A5.0976,5.0976,0,0,0,89.13,267.311c-.0071-.232.0051-.4473.0115-.6677a85.9031,85.9031,0,0,1,17.9807,8.5072,34.0059,34.0059,0,0,0,25.2568,4.07c.9229-.209,4.5684-1.1353,5.7256-1.3467a9.8993,9.8993,0,0,0,3.4912-18.1226c-6.1787-3.9487-7.4756-11.0161-7.4756-16.25,0-10.72,9.4307-19.44,21.0225-19.44s21.0234,8.7207,21.0234,19.44c0,5.2334-1.2968,12.3008-7.4736,16.2486a9.9219,9.9219,0,0,0-4.6357,8.3828v.1333a9.9539,9.9539,0,0,0,7.9609,9.7056c.8545.1733,4.0332,1.0146,4.9941,1.2334a34.1813,34.1813,0,0,0,25.4024-4.1,84.44,84.44,0,0,1,18.5029-8.6529c.0132.28.0259.56.0171.8589a5.0891,5.0891,0,0,0,4.937,5.2529h.1631a5.0954,5.0954,0,0,0,5.09-4.947,19.5933,19.5933,0,0,0-1.5869-8.5479,13.0344,13.0344,0,0,0,.7608-2.0777l6.7168-25.6519a13.3178,13.3178,0,0,0-9.3321-16.164l-4.8964-1.3418a1.277,1.277,0,0,1-.9122-1.4737l1.21-6.1567a1.2764,1.2764,0,0,1,1.25-1.0269h20.6865a1.2706,1.2706,0,0,1,1.2578,1.08v.001A291.818,291.818,0,0,1,249.4786,266.8492Zm216.21,143.1364a17.95,17.95,0,0,1-17.95,17.95H268.17a17.95,17.95,0,0,1-17.95-17.95V289.3988a30.4045,30.4045,0,0,0,11.2378-21.84,298.3253,298.3253,0,0,0-1.7969-52.1469h5.8716v9.4566a4.8288,4.8288,0,0,0,4.8288,4.8288h4.9929a4.8289,4.8289,0,0,0,4.8289-4.8288V193.7156a4.8288,4.8288,0,0,0-4.8289-4.8288h-4.9929a4.8287,4.8287,0,0,0-4.8288,4.8288v9.4566h-7.6495a13.1913,13.1913,0,0,0-7.663-8.9361V76.16a17.95,17.95,0,0,1,17.95-17.95H447.7384a17.95,17.95,0,0,1,17.95,17.95Z"/> </g> </g>
</svg>