<svg width="18" height="17" viewBox="0 0 18 17" fill="none" xmlns="http://www.w3.org/2000/svg">
<g clip-path="url(#clip0_8_920)">
<path d="M3 13.1693V8.16137L8.1975 3.25262H1.5C0.675 3.25262 0 3.89012 0 4.66929V14.586C0 15.3651 0.675 16.0026 1.5 16.0026H12C12.825 16.0026 13.5 15.3651 13.5 14.586V8.26054L8.3025 13.1693H3Z" fill="black"/>
<path d="M4.5 11.7526H7.68L13.08 6.65263L9.9 3.64929L4.5 8.74929V11.7526Z" fill="black"/>
<path d="M14.9325 2.8914L13.875 1.89265C13.29 1.34015 12.3375 1.34015 11.7525 1.89265L10.9575 2.64348L14.1375 5.64681L14.9325 4.89598C15.525 4.34348 15.525 3.4439 14.9325 2.8914Z" fill="black"/>
</g>
<defs>
<clipPath id="clip0_8_920">
<rect width="18" height="17" fill="white"/>
</clipPath>
</defs>
</svg>
