<svg width="20" height="20" viewBox="0 0 20 20" fill="none" xmlns="http://www.w3.org/2000/svg">
<g clip-path="url(#clip0_8_369)">
<path d="M3.33333 15.4933V9.6016L9.10833 3.8266H1.66667C0.75 3.8266 0 4.5766 0 5.49327V17.1599C0 18.0766 0.75 18.8266 1.66667 18.8266H13.3333C14.25 18.8266 15 18.0766 15 17.1599V9.71827L9.225 15.4933H3.33333Z" fill="black"/>
<path d="M5 13.8265H8.53333L14.5333 7.82655L11 4.29321L5 10.2932V13.8265Z" fill="black"/>
<path d="M16.5917 3.40157L15.4167 2.22657C14.7667 1.57657 13.7084 1.57657 13.0584 2.22657L12.175 3.10991L15.7084 6.64324L16.5917 5.75991C17.25 5.10991 17.25 4.05157 16.5917 3.40157Z" fill="black"/>
</g>
<defs>
<clipPath id="clip0_8_369">
<rect width="20" height="20" fill="white"/>
</clipPath>
</defs>
</svg>
