<svg width="18" height="38" viewBox="0 0 18 38" fill="none" xmlns="http://www.w3.org/2000/svg">
<path d="M4.88672 12.25C5.75391 12.25 6.5625 12.4668 7.3125 12.9004C8.0625 13.334 8.6543 13.9258 9.08789 14.6758C9.52148 15.4258 9.73828 16.2461 9.73828 17.1367C9.73828 18.332 9.35156 19.3867 8.57812 20.3008L8.78906 20.5117H9.38672L13.1133 24.2383L11.9883 25.3633L8.26172 21.6367V21.0391L8.05078 20.8281C7.13672 21.6016 6.08203 21.9883 4.88672 21.9883C3.99609 21.9883 3.17578 21.7715 2.42578 21.3379C1.67578 20.9043 1.08398 20.3125 0.650391 19.5625C0.216797 18.8125 0 17.998 0 17.1191C0 16.2402 0.216797 15.4258 0.650391 14.6758C1.08398 13.9258 1.67578 13.334 2.42578 12.9004C3.17578 12.4668 3.99609 12.25 4.88672 12.25ZM4.88672 13.7617C3.94922 13.7617 3.15234 14.0898 2.49609 14.7461C1.83984 15.4023 1.51172 16.1992 1.51172 17.1367C1.51172 18.0742 1.83984 18.8711 2.49609 19.5273C3.15234 20.1836 3.94922 20.5117 4.88672 20.5117C5.82422 20.5117 6.62109 20.1836 7.27734 19.5273C7.93359 18.8711 8.26172 18.0742 8.26172 17.1367C8.26172 16.1992 7.93359 15.4023 7.27734 14.7461C6.62109 14.0898 5.82422 13.7617 4.88672 13.7617Z" fill="#878A99"/>
</svg>
