<svg width="40" height="39" viewBox="0 0 40 39" fill="none" xmlns="http://www.w3.org/2000/svg">
<path d="M28.5763 16.8379L23.1245 11.3895L23.5075 11.0068C23.8529 10.6616 24.281 10.4927 24.7916 10.5002C25.3023 10.5077 25.7303 10.6841 26.0757 11.0293L28.9819 13.9336C29.3273 14.2788 29.5 14.7028 29.5 15.2056C29.5 15.7084 29.3273 16.1324 28.9819 16.4776L28.5763 16.8379ZM17.47 27.9822C17.1245 28.3274 16.7003 28.5 16.1971 28.5C15.694 28.5 15.2697 28.3274 14.9243 27.9822L12.0181 25.0779C11.6727 24.7327 11.5 24.3087 11.5 23.8059C11.5 23.3031 11.6727 22.8791 12.0181 22.5339L12.3786 22.1736L17.8304 27.622L17.47 27.9822ZM20.7365 27.3518C20.5563 27.5319 20.3461 27.622 20.1058 27.622C19.8655 27.622 19.6552 27.5319 19.475 27.3518L12.6489 20.5301C12.4687 20.35 12.3786 20.1399 12.3786 19.8997C12.3786 19.6596 12.4687 19.4495 12.6489 19.2694L13.933 17.9636C14.1133 17.7834 14.3273 17.6934 14.5751 17.6934C14.8229 17.6934 15.0369 17.7834 15.2171 17.9636L16.6364 19.3819L20.3761 15.6446L18.9568 14.2263C18.7766 14.0462 18.6865 13.836 18.6865 13.5959C18.6865 13.3557 18.7766 13.1456 18.9568 12.9655L20.2409 11.6597C20.4212 11.4796 20.6352 11.3895 20.883 11.3895C21.1308 11.3895 21.3448 11.4796 21.525 11.6597L28.3511 18.4814C28.5313 18.6615 28.6214 18.8754 28.6214 19.123C28.6214 19.3707 28.5313 19.5845 28.3511 19.7647L27.0444 21.0479C26.8642 21.2281 26.6539 21.3181 26.4136 21.3181C26.1733 21.3181 25.9631 21.2281 25.7829 21.0479L24.3636 19.6296L20.6239 23.3669L22.0432 24.7852C22.2234 24.9653 22.3135 25.1792 22.3135 25.4269C22.3135 25.6745 22.2234 25.8884 22.0432 26.0685L20.7365 27.3518Z" fill="black"/>
</svg>
