<svg width="197" height="197" viewBox="0 0 197 197" fill="none" xmlns="http://www.w3.org/2000/svg">
<path d="M98.41 162.377C133.738 162.377 162.377 133.738 162.377 98.41C162.377 63.0823 133.738 34.4435 98.41 34.4435C63.0823 34.4435 34.4435 63.0823 34.4435 98.41C34.4435 133.738 63.0823 162.377 98.41 162.377Z" stroke="#E9EBEC"/>
<path d="M98.41 0C111.636 0 124.726 2.66601 136.899 7.83874C149.071 13.0115 160.076 20.5848 169.256 30.1062C178.436 39.6276 185.602 50.9017 190.327 63.2549C195.051 75.6082 197.237 88.787 196.754 102.004L162.334 100.746C162.648 92.1551 161.227 83.5888 158.156 75.5592C155.085 67.5296 150.427 60.2014 144.46 54.0125C138.493 47.8236 131.34 42.901 123.428 39.5387C115.516 36.1764 107.007 34.4435 98.41 34.4435V0Z" fill="#405189"/>
<path d="M196.754 102.004C196.15 118.557 191.376 134.689 182.877 148.906C174.378 163.124 162.427 174.965 148.133 183.334C133.839 191.704 117.664 196.329 101.106 196.783C84.5482 197.237 68.1438 193.504 53.4128 185.93L69.1619 155.298C78.737 160.221 89.3999 162.647 100.162 162.352C110.925 162.058 121.439 159.051 130.73 153.611C140.021 148.171 147.789 140.474 153.313 131.233C158.838 121.992 161.941 111.506 162.334 100.746L196.754 102.004Z" fill="#0AB39C"/>
<path d="M53.4128 185.93C31.3069 174.565 14.3207 155.255 5.86675 131.881C-2.58725 108.506 -1.88273 82.798 7.83875 59.9214L39.5387 73.3925C33.2197 88.2622 32.7618 104.972 38.2569 120.166C43.752 135.359 54.793 147.911 69.1618 155.298L53.4128 185.93Z" fill="#F7B84B"/>
<path d="M7.83887 59.9215C15.8708 41.0207 29.6145 25.1063 47.1444 14.408L65.0874 43.8087C53.693 50.7626 44.7596 61.107 39.5388 73.3925L7.83887 59.9215Z" fill="#F06548"/>
<path d="M47.1443 14.4079C62.5791 4.9882 80.3108 0.00315593 98.3929 0L98.3989 34.4435C86.6455 34.4456 75.1199 37.6858 65.0873 43.8087L47.1443 14.4079Z" fill="#299CDB"/>
</svg>
