<svg width="20" height="20" viewBox="0 0 20 20" fill="none" xmlns="http://www.w3.org/2000/svg">
<g clip-path="url(#clip0_2_41)">
<path d="M19.9816 0.00915527H0V19.9908H19.9816V0.00915527Z" fill="#F5F5F5"/>
<path d="M20 0.00915527H0V1.54587H20V0.00915527Z" fill="#FF4B55"/>
<path d="M20 6.15741H0V7.69413H20V6.15741Z" fill="#FF4B55"/>
<path d="M20 3.08337H0V4.62009H20V3.08337Z" fill="#FF4B55"/>
<path d="M20 9.2312H0V10.7679H20V9.2312Z" fill="#FF4B55"/>
<path d="M20 15.3793H0V16.916H20V15.3793Z" fill="#FF4B55"/>
<path d="M20 18.4535H0V19.9902H20V18.4535Z" fill="#FF4B55"/>
<path d="M20 12.3054H0V13.8421H20V12.3054Z" fill="#FF4B55"/>
<path d="M10.7594 0.00915527H0V10.7685H10.7594V0.00915527Z" fill="#41479B"/>
<path d="M1.37575 0.81302L1.45864 1.06161L1.72067 1.06365C1.75457 1.06392 1.76868 1.1072 1.74137 1.12736L1.53059 1.28302L1.60961 1.53286C1.61985 1.56521 1.58305 1.59197 1.55539 1.57224L1.34219 1.41986L1.12899 1.57224C1.10141 1.592 1.06457 1.56521 1.07477 1.53286L1.15379 1.28302L0.943012 1.12736C0.915746 1.1072 0.92977 1.06392 0.963715 1.06365L1.22575 1.06161L1.30864 0.81302C1.3195 0.780833 1.36504 0.780833 1.37575 0.81302Z" fill="#F5F5F5"/>
<path d="M1.37575 2.88678L1.45864 3.13537L1.72067 3.1374C1.75457 3.13768 1.76868 3.18096 1.74137 3.20112L1.53059 3.35678L1.60961 3.60662C1.61985 3.63897 1.58305 3.66572 1.55539 3.646L1.34219 3.49362L1.12899 3.646C1.10141 3.66576 1.06457 3.63897 1.07477 3.60662L1.15379 3.35678L0.943012 3.20112C0.915746 3.18096 0.92977 3.13768 0.963715 3.1374L1.22575 3.13537L1.30864 2.88678C1.3195 2.85455 1.36504 2.85455 1.37575 2.88678Z" fill="#F5F5F5"/>
<path d="M1.37575 5.18668L1.45864 5.43527L1.72067 5.4373C1.75457 5.43758 1.76868 5.48086 1.74137 5.50105L1.53059 5.65672L1.60961 5.90656C1.61985 5.9389 1.58305 5.96566 1.55539 5.94593L1.34219 5.79355L1.12899 5.94593C1.10141 5.9657 1.06457 5.9389 1.07477 5.90656L1.15379 5.65672L0.943012 5.50105C0.915746 5.4809 0.92977 5.43758 0.963715 5.4373L1.22575 5.43527L1.30864 5.18668C1.3195 5.15449 1.36504 5.15449 1.37575 5.18668Z" fill="#F5F5F5"/>
<path d="M1.37575 7.29984L1.45864 7.54843L1.72067 7.55046C1.75457 7.55073 1.76868 7.59402 1.74137 7.61417L1.53059 7.76984L1.60961 8.01968C1.61985 8.05202 1.58305 8.07878 1.55539 8.05905L1.34219 7.90667L1.12899 8.05905C1.10141 8.07882 1.06457 8.05202 1.07477 8.01968L1.15379 7.76984L0.943012 7.61417C0.915746 7.59402 0.92977 7.55073 0.963715 7.55046L1.22575 7.54843L1.30864 7.29984C1.3195 7.26765 1.36504 7.26765 1.37575 7.29984Z" fill="#F5F5F5"/>
<path d="M1.37575 9.22269L1.45864 9.47128L1.72067 9.47331C1.75457 9.47359 1.76868 9.51687 1.74137 9.53702L1.53059 9.69269L1.60961 9.94253C1.61985 9.97488 1.58305 10.0016 1.55539 9.98191L1.34219 9.82952L1.12899 9.98191C1.10141 10.0017 1.06457 9.97488 1.07477 9.94253L1.15379 9.69269L0.943012 9.53702C0.915746 9.51687 0.92977 9.47355 0.963715 9.47331L1.22575 9.47128L1.30864 9.22269C1.3195 9.1905 1.36504 9.1905 1.37575 9.22269Z" fill="#F5F5F5"/>
<path d="M2.38508 1.79501L2.46798 2.04361L2.73001 2.04564C2.76391 2.04591 2.77801 2.08919 2.75071 2.10935L2.53993 2.26501L2.61895 2.51486C2.62919 2.5472 2.59239 2.57396 2.56473 2.55423L2.35153 2.40185L2.13833 2.55423C2.11075 2.574 2.07391 2.5472 2.08411 2.51486L2.16313 2.26501L1.95235 2.10935C1.92508 2.08919 1.93911 2.04591 1.97305 2.04564L2.23508 2.04361L2.31798 1.79501C2.32883 1.76283 2.37438 1.76283 2.38508 1.79501Z" fill="#F5F5F5"/>
<path d="M2.38508 4.095L2.46798 4.3436L2.73001 4.34563C2.76391 4.3459 2.77801 4.38918 2.75071 4.40934L2.53993 4.565L2.61895 4.81485C2.62919 4.84719 2.59239 4.87395 2.56473 4.85422L2.35153 4.70184L2.13833 4.85422C2.11075 4.87399 2.07391 4.84719 2.08411 4.81485L2.16313 4.565L1.95235 4.40934C1.92508 4.38918 1.93911 4.3459 1.97305 4.34563L2.23508 4.3436L2.31798 4.095C2.32883 4.06281 2.37438 4.06281 2.38508 4.095Z" fill="#F5F5F5"/>
<path d="M2.38508 6.28009L2.46798 6.52869L2.73001 6.53072C2.76391 6.53099 2.77801 6.57427 2.75071 6.59443L2.53993 6.75009L2.61895 6.99994C2.62919 7.03228 2.59239 7.05904 2.56473 7.03931L2.35153 6.88693L2.13833 7.03931C2.11075 7.05908 2.07391 7.03228 2.08411 6.99994L2.16313 6.75009L1.95235 6.59443C1.92508 6.57427 1.93911 6.53099 1.97305 6.53072L2.23508 6.52869L2.31798 6.28009C2.32883 6.24794 2.37438 6.24794 2.38508 6.28009Z" fill="#F5F5F5"/>
<path d="M2.38508 8.24243L2.46798 8.49103L2.73001 8.49306C2.76391 8.49333 2.77801 8.53661 2.75071 8.55677L2.53993 8.71243L2.61895 8.96228C2.62919 8.99462 2.59239 9.02138 2.56473 9.00165L2.35153 8.84927L2.13833 9.00165C2.11075 9.02142 2.07391 8.99462 2.08411 8.96228L2.16313 8.71243L1.95235 8.55677C1.92508 8.53661 1.93911 8.49333 1.97305 8.49306L2.23508 8.49103L2.31798 8.24243C2.32883 8.21021 2.37438 8.21021 2.38508 8.24243Z" fill="#F5F5F5"/>
<path d="M3.39445 0.81302L3.47734 1.06161L3.73938 1.06365C3.77328 1.06392 3.78738 1.1072 3.76008 1.12736L3.5493 1.28302L3.62832 1.53286C3.63856 1.56521 3.60176 1.59197 3.5741 1.57224L3.3609 1.41986L3.1477 1.57224C3.12012 1.592 3.08328 1.56521 3.09348 1.53286L3.1725 1.28302L2.96172 1.12736C2.93445 1.1072 2.94848 1.06392 2.98242 1.06365L3.24445 1.06161L3.32734 0.81302C3.3382 0.780833 3.38371 0.780833 3.39445 0.81302Z" fill="#F5F5F5"/>
<path d="M3.39445 2.88678L3.47734 3.13537L3.73938 3.1374C3.77328 3.13768 3.78738 3.18096 3.76008 3.20112L3.5493 3.35678L3.62832 3.60662C3.63856 3.63897 3.60176 3.66572 3.5741 3.646L3.3609 3.49362L3.1477 3.646C3.12012 3.66576 3.08328 3.63897 3.09348 3.60662L3.1725 3.35678L2.96172 3.20112C2.93445 3.18096 2.94848 3.13768 2.98242 3.1374L3.24445 3.13537L3.32734 2.88678C3.3382 2.85455 3.38371 2.85455 3.39445 2.88678Z" fill="#F5F5F5"/>
<path d="M3.39445 5.18668L3.47734 5.43527L3.73938 5.4373C3.77328 5.43758 3.78738 5.48086 3.76008 5.50105L3.5493 5.65672L3.62832 5.90656C3.63856 5.9389 3.60176 5.96566 3.5741 5.94593L3.3609 5.79355L3.1477 5.94593C3.12012 5.9657 3.08328 5.9389 3.09348 5.90656L3.1725 5.65672L2.96172 5.50105C2.93445 5.4809 2.94848 5.43758 2.98242 5.4373L3.24445 5.43527L3.32734 5.18668C3.3382 5.15449 3.38371 5.15449 3.39445 5.18668Z" fill="#F5F5F5"/>
<path d="M3.39447 7.29984L3.47736 7.54844L3.73939 7.55047C3.7733 7.55074 3.7874 7.59402 3.76009 7.61418L3.54931 7.76984L3.62833 8.01968C3.63857 8.05203 3.60177 8.07879 3.57412 8.05906L3.36099 7.90664L3.14779 8.05902C3.12021 8.07879 3.08337 8.05199 3.09357 8.01965L3.17259 7.7698L2.96181 7.61414C2.93455 7.59398 2.94857 7.5507 2.98251 7.55043L3.24455 7.5484L3.32744 7.2998C3.33822 7.26765 3.38373 7.26765 3.39447 7.29984Z" fill="#F5F5F5"/>
<path d="M3.39445 9.22269L3.47734 9.47128L3.73938 9.47331C3.77328 9.47359 3.78738 9.51687 3.76008 9.53702L3.5493 9.69269L3.62832 9.94253C3.63856 9.97488 3.60176 10.0016 3.5741 9.98191L3.3609 9.82952L3.1477 9.98191C3.12012 10.0017 3.08328 9.97488 3.09348 9.94253L3.1725 9.69269L2.96172 9.53702C2.93445 9.51687 2.94848 9.47355 2.98242 9.47331L3.24445 9.47128L3.32734 9.22269C3.3382 9.1905 3.38371 9.1905 3.39445 9.22269Z" fill="#F5F5F5"/>
<path d="M4.40379 1.79501L4.48668 2.04361L4.74871 2.04564C4.78262 2.04591 4.79672 2.08919 4.76942 2.10935L4.55864 2.26501L4.63766 2.51486C4.64789 2.5472 4.6111 2.57396 4.58344 2.55423L4.37024 2.40185L4.15703 2.55423C4.12946 2.574 4.09262 2.5472 4.10282 2.51486L4.18184 2.26501L3.97106 2.10935C3.94379 2.08919 3.95782 2.04591 3.99176 2.04564L4.25391 2.04361L4.3368 1.79501C4.34754 1.76283 4.39305 1.76283 4.40379 1.79501Z" fill="#F5F5F5"/>
<path d="M4.40379 4.095L4.48668 4.3436L4.74871 4.34563C4.78262 4.3459 4.79672 4.38918 4.76942 4.40934L4.55864 4.565L4.63766 4.81485C4.64789 4.84719 4.6111 4.87395 4.58344 4.85422L4.37024 4.70184L4.15703 4.85422C4.12946 4.87399 4.09262 4.84719 4.10282 4.81485L4.18184 4.565L3.97106 4.40934C3.94379 4.38918 3.95782 4.3459 3.99176 4.34563L4.25379 4.3436L4.33668 4.095C4.34754 4.06281 4.39305 4.06281 4.40379 4.095Z" fill="#F5F5F5"/>
<path d="M4.40379 6.28009L4.48668 6.52869L4.74871 6.53072C4.78262 6.53099 4.79672 6.57427 4.76942 6.59443L4.55864 6.75009L4.63766 6.99994C4.64789 7.03228 4.6111 7.05904 4.58344 7.03931L4.37024 6.88693L4.15703 7.03931C4.12946 7.05908 4.09262 7.03228 4.10282 6.99994L4.18184 6.75009L3.97106 6.59443C3.94379 6.57427 3.95782 6.53099 3.99176 6.53072L4.25379 6.52869L4.33668 6.28009C4.34754 6.24794 4.39305 6.24794 4.40379 6.28009Z" fill="#F5F5F5"/>
<path d="M4.40379 8.24243L4.48668 8.49103L4.74871 8.49306C4.78262 8.49333 4.79672 8.53661 4.76942 8.55677L4.55864 8.71243L4.63766 8.96228C4.64789 8.99462 4.6111 9.02138 4.58344 9.00165L4.37024 8.84927L4.15703 9.00165C4.12946 9.02142 4.09262 8.99462 4.10282 8.96228L4.18184 8.71243L3.97106 8.55677C3.94379 8.53661 3.95782 8.49333 3.99176 8.49306L4.25379 8.49103L4.33668 8.24243C4.34754 8.21021 4.39305 8.21021 4.40379 8.24243Z" fill="#F5F5F5"/>
<path d="M5.41313 0.81302L5.49602 1.06161L5.75805 1.06365C5.79196 1.06392 5.80606 1.1072 5.77876 1.12736L5.56797 1.28302L5.647 1.53286C5.65723 1.56521 5.62044 1.59197 5.59278 1.57224L5.37958 1.41986L5.16637 1.57224C5.13879 1.592 5.10196 1.56521 5.11215 1.53286L5.19118 1.28302L4.9804 1.12736C4.95313 1.1072 4.96715 1.06392 5.0011 1.06365L5.26313 1.06161L5.34602 0.81302C5.35688 0.780833 5.40239 0.780833 5.41313 0.81302Z" fill="#F5F5F5"/>
<path d="M5.41313 2.88678L5.49602 3.13537L5.75805 3.1374C5.79196 3.13768 5.80606 3.18096 5.77876 3.20112L5.56797 3.35678L5.647 3.60662C5.65723 3.63897 5.62044 3.66572 5.59278 3.646L5.37958 3.49362L5.16637 3.646C5.13879 3.66576 5.10196 3.63897 5.11215 3.60662L5.19118 3.35678L4.9804 3.20112C4.95313 3.18096 4.96715 3.13768 5.0011 3.1374L5.26313 3.13537L5.34602 2.88678C5.35688 2.85455 5.40239 2.85455 5.41313 2.88678Z" fill="#F5F5F5"/>
<path d="M5.41313 5.18668L5.49602 5.43527L5.75805 5.4373C5.79196 5.43758 5.80606 5.48086 5.77876 5.50105L5.56797 5.65672L5.647 5.90656C5.65723 5.9389 5.62044 5.96566 5.59278 5.94593L5.37958 5.79355L5.16637 5.94593C5.13879 5.9657 5.10196 5.9389 5.11215 5.90656L5.19118 5.65672L4.9804 5.50105C4.95313 5.4809 4.96715 5.43758 5.0011 5.4373L5.26313 5.43527L5.34602 5.18668C5.35688 5.15449 5.40239 5.15449 5.41313 5.18668Z" fill="#F5F5F5"/>
<path d="M5.41313 7.29984L5.49602 7.54843L5.75805 7.55046C5.79196 7.55073 5.80606 7.59402 5.77876 7.61417L5.56797 7.76984L5.647 8.01968C5.65723 8.05202 5.62044 8.07878 5.59278 8.05905L5.37958 7.90667L5.16637 8.05905C5.13879 8.07882 5.10196 8.05202 5.11215 8.01968L5.19118 7.76984L4.9804 7.61417C4.95313 7.59402 4.96715 7.55073 5.0011 7.55046L5.26313 7.54843L5.34602 7.29984C5.35688 7.26765 5.40239 7.26765 5.41313 7.29984Z" fill="#F5F5F5"/>
<path d="M5.41313 9.22269L5.49602 9.47128L5.75805 9.47331C5.79196 9.47359 5.80606 9.51687 5.77876 9.53702L5.56797 9.69269L5.647 9.94253C5.65723 9.97488 5.62044 10.0016 5.59278 9.98191L5.37958 9.82952L5.16637 9.98191C5.13879 10.0017 5.10196 9.97488 5.11215 9.94253L5.19118 9.69269L4.9804 9.53702C4.95313 9.51687 4.96715 9.47355 5.0011 9.47331L5.26313 9.47128L5.34602 9.22269C5.35688 9.1905 5.40239 9.1905 5.41313 9.22269Z" fill="#F5F5F5"/>
<path d="M6.42247 1.79501L6.50536 2.04361L6.76739 2.04564C6.8013 2.04591 6.8154 2.08919 6.7881 2.10935L6.57731 2.26501L6.65634 2.51486C6.66657 2.5472 6.62978 2.57396 6.60212 2.55423L6.38892 2.40185L6.17571 2.55423C6.14813 2.574 6.1113 2.5472 6.12149 2.51486L6.20052 2.26501L5.98974 2.10935C5.96247 2.08919 5.97649 2.04591 6.0104 2.04564L6.27243 2.04361L6.35532 1.79501C6.36622 1.76283 6.41173 1.76283 6.42247 1.79501Z" fill="#F5F5F5"/>
<path d="M6.42247 4.095L6.50536 4.3436L6.76739 4.34563C6.8013 4.3459 6.8154 4.38918 6.7881 4.40934L6.57731 4.565L6.65634 4.81485C6.66657 4.84719 6.62978 4.87395 6.60212 4.85422L6.38892 4.70184L6.17571 4.85422C6.14813 4.87399 6.1113 4.84719 6.12149 4.81485L6.20052 4.565L5.98974 4.40934C5.96247 4.38918 5.97649 4.3459 6.0104 4.34563L6.27243 4.3436L6.35532 4.095C6.36622 4.06281 6.41173 4.06281 6.42247 4.095Z" fill="#F5F5F5"/>
<path d="M6.42247 6.28009L6.50536 6.52869L6.76739 6.53072C6.8013 6.53099 6.8154 6.57427 6.7881 6.59443L6.57731 6.75009L6.65634 6.99994C6.66657 7.03228 6.62978 7.05904 6.60212 7.03931L6.38892 6.88693L6.17571 7.03931C6.14813 7.05908 6.1113 7.03228 6.12149 6.99994L6.20052 6.75009L5.98974 6.59443C5.96247 6.57427 5.97649 6.53099 6.0104 6.53072L6.27243 6.52869L6.35532 6.28009C6.36622 6.24794 6.41173 6.24794 6.42247 6.28009Z" fill="#F5F5F5"/>
<path d="M6.42247 8.24243L6.50536 8.49103L6.76739 8.49306C6.8013 8.49333 6.8154 8.53661 6.7881 8.55677L6.57731 8.71243L6.65634 8.96228C6.66657 8.99462 6.62978 9.02138 6.60212 9.00165L6.38892 8.84927L6.17571 9.00165C6.14813 9.02142 6.1113 8.99462 6.12149 8.96228L6.20052 8.71243L5.98974 8.55677C5.96247 8.53661 5.97649 8.49333 6.0104 8.49306L6.27243 8.49103L6.35532 8.24243C6.36622 8.21021 6.41173 8.21021 6.42247 8.24243Z" fill="#F5F5F5"/>
<path d="M7.43181 0.81302L7.5147 1.06161L7.77673 1.06365C7.81064 1.06392 7.82474 1.1072 7.79743 1.12736L7.58665 1.28302L7.66567 1.53286C7.67591 1.56521 7.63911 1.59197 7.61146 1.57224L7.39825 1.41986L7.18505 1.57224C7.15747 1.592 7.12064 1.56521 7.13083 1.53286L7.20985 1.28302L6.99907 1.12736C6.97181 1.1072 6.98583 1.06392 7.01978 1.06365L7.28181 1.06161L7.3647 0.81302C7.37556 0.780833 7.42107 0.780833 7.43181 0.81302Z" fill="#F5F5F5"/>
<path d="M7.43181 2.88678L7.5147 3.13537L7.77673 3.1374C7.81064 3.13768 7.82474 3.18096 7.79743 3.20112L7.58665 3.35678L7.66567 3.60662C7.67591 3.63897 7.63911 3.66572 7.61146 3.646L7.39825 3.49362L7.18505 3.646C7.15747 3.66576 7.12064 3.63897 7.13083 3.60662L7.20985 3.35678L6.99907 3.20112C6.97181 3.18096 6.98583 3.13768 7.01978 3.1374L7.28181 3.13537L7.3647 2.88678C7.37556 2.85455 7.42107 2.85455 7.43181 2.88678Z" fill="#F5F5F5"/>
<path d="M7.43181 5.18668L7.5147 5.43527L7.77673 5.4373C7.81064 5.43758 7.82474 5.48086 7.79743 5.50105L7.58665 5.65672L7.66567 5.90656C7.67591 5.9389 7.63911 5.96566 7.61146 5.94593L7.39825 5.79355L7.18505 5.94593C7.15747 5.9657 7.12064 5.9389 7.13083 5.90656L7.20985 5.65672L6.99907 5.50105C6.97181 5.4809 6.98583 5.43758 7.01978 5.4373L7.28181 5.43527L7.3647 5.18668C7.37556 5.15449 7.42107 5.15449 7.43181 5.18668Z" fill="#F5F5F5"/>
<path d="M7.43181 7.29984L7.5147 7.54843L7.77673 7.55046C7.81064 7.55073 7.82474 7.59402 7.79743 7.61417L7.58665 7.76984L7.66567 8.01968C7.67591 8.05202 7.63911 8.07878 7.61146 8.05905L7.39825 7.90667L7.18505 8.05905C7.15747 8.07882 7.12064 8.05202 7.13083 8.01968L7.20985 7.76984L6.99907 7.61417C6.97181 7.59402 6.98583 7.55073 7.01978 7.55046L7.28181 7.54843L7.3647 7.29984C7.37556 7.26765 7.42107 7.26765 7.43181 7.29984Z" fill="#F5F5F5"/>
<path d="M7.43181 9.22269L7.5147 9.47128L7.77673 9.47331C7.81064 9.47359 7.82474 9.51687 7.79743 9.53702L7.58665 9.69269L7.66567 9.94253C7.67591 9.97488 7.63911 10.0016 7.61146 9.98191L7.39825 9.82952L7.18505 9.98191C7.15747 10.0017 7.12064 9.97488 7.13083 9.94253L7.20985 9.69269L6.99907 9.53702C6.97181 9.51687 6.98583 9.47355 7.01978 9.47331L7.28181 9.47128L7.3647 9.22269C7.37556 9.1905 7.42107 9.1905 7.43181 9.22269Z" fill="#F5F5F5"/>
<path d="M8.44118 1.79501L8.52407 2.04361L8.7861 2.04564C8.82 2.04591 8.83411 2.08919 8.8068 2.10935L8.59602 2.26501L8.67504 2.51486C8.68528 2.5472 8.64848 2.57396 8.62082 2.55423L8.40762 2.40185L8.19442 2.55423C8.16684 2.574 8.13 2.5472 8.1402 2.51486L8.21922 2.26501L8.00844 2.10935C7.98118 2.08919 7.9952 2.04591 8.02914 2.04564L8.29118 2.04361L8.37407 1.79501C8.38489 1.76283 8.43043 1.76283 8.44118 1.79501Z" fill="#F5F5F5"/>
<path d="M8.44118 4.095L8.52407 4.3436L8.7861 4.34563C8.82 4.3459 8.83411 4.38918 8.8068 4.40934L8.59602 4.565L8.67504 4.81485C8.68528 4.84719 8.64848 4.87395 8.62082 4.85422L8.40762 4.70184L8.19442 4.85422C8.16684 4.87399 8.13 4.84719 8.1402 4.81485L8.21922 4.565L8.00844 4.40934C7.98118 4.38918 7.9952 4.3459 8.02914 4.34563L8.29118 4.3436L8.37407 4.095C8.38489 4.06281 8.43043 4.06281 8.44118 4.095Z" fill="#F5F5F5"/>
<path d="M8.44118 6.28009L8.52407 6.52869L8.7861 6.53072C8.82 6.53099 8.83411 6.57427 8.8068 6.59443L8.59602 6.75009L8.67504 6.99994C8.68528 7.03228 8.64848 7.05904 8.62082 7.03931L8.40762 6.88693L8.19442 7.03931C8.16684 7.05908 8.13 7.03228 8.1402 6.99994L8.21922 6.75009L8.00844 6.59443C7.98118 6.57427 7.9952 6.53099 8.02914 6.53072L8.29118 6.52869L8.37407 6.28009C8.38489 6.24794 8.43043 6.24794 8.44118 6.28009Z" fill="#F5F5F5"/>
<path d="M8.44118 8.24243L8.52407 8.49103L8.7861 8.49306C8.82 8.49333 8.83411 8.53661 8.8068 8.55677L8.59602 8.71243L8.67504 8.96228C8.68528 8.99462 8.64848 9.02138 8.62082 9.00165L8.40762 8.84927L8.19442 9.00165C8.16684 9.02142 8.13 8.99462 8.1402 8.96228L8.21922 8.71243L8.00844 8.55677C7.98118 8.53661 7.9952 8.49333 8.02914 8.49306L8.29118 8.49103L8.37407 8.24243C8.38489 8.21021 8.43043 8.21021 8.44118 8.24243Z" fill="#F5F5F5"/>
<path d="M9.45051 0.81302L9.53341 1.06161L9.79544 1.06365C9.82934 1.06392 9.84344 1.1072 9.81614 1.12736L9.60536 1.28302L9.68438 1.53286C9.69462 1.56521 9.65782 1.59197 9.63016 1.57224L9.41696 1.41986L9.20376 1.57224C9.17618 1.592 9.13934 1.56521 9.14954 1.53286L9.22856 1.28302L9.01778 1.12736C8.99051 1.1072 9.00454 1.06392 9.03848 1.06365L9.30051 1.06161L9.38341 0.81302C9.39423 0.780833 9.43977 0.780833 9.45051 0.81302Z" fill="#F5F5F5"/>
<path d="M9.45051 2.88678L9.53341 3.13537L9.79544 3.1374C9.82934 3.13768 9.84344 3.18096 9.81614 3.20112L9.60536 3.35678L9.68438 3.60662C9.69462 3.63897 9.65782 3.66572 9.63016 3.646L9.41696 3.49362L9.20376 3.646C9.17618 3.66576 9.13934 3.63897 9.14954 3.60662L9.22856 3.35678L9.01778 3.20112C8.99051 3.18096 9.00454 3.13768 9.03848 3.1374L9.30051 3.13537L9.38341 2.88678C9.39423 2.85455 9.43977 2.85455 9.45051 2.88678Z" fill="#F5F5F5"/>
<path d="M9.45051 5.18668L9.53341 5.43527L9.79544 5.4373C9.82934 5.43758 9.84344 5.48086 9.81614 5.50105L9.60536 5.65672L9.68438 5.90656C9.69462 5.9389 9.65782 5.96566 9.63016 5.94593L9.41696 5.79355L9.20376 5.94593C9.17618 5.9657 9.13934 5.9389 9.14954 5.90656L9.22856 5.65672L9.01778 5.50105C8.99051 5.4809 9.00454 5.43758 9.03848 5.4373L9.30051 5.43527L9.38341 5.18668C9.39423 5.15449 9.43977 5.15449 9.45051 5.18668Z" fill="#F5F5F5"/>
<path d="M9.45051 7.29984L9.53341 7.54843L9.79544 7.55046C9.82934 7.55073 9.84344 7.59402 9.81614 7.61417L9.60536 7.76984L9.68438 8.01968C9.69462 8.05202 9.65782 8.07878 9.63016 8.05905L9.41696 7.90667L9.20376 8.05905C9.17618 8.07882 9.13934 8.05202 9.14954 8.01968L9.22856 7.76984L9.01778 7.61417C8.99051 7.59402 9.00454 7.55073 9.03848 7.55046L9.30051 7.54843L9.38341 7.29984C9.39423 7.26765 9.43977 7.26765 9.45051 7.29984Z" fill="#F5F5F5"/>
<path d="M9.45051 9.22269L9.53341 9.47128L9.79544 9.47331C9.82934 9.47359 9.84344 9.51687 9.81614 9.53702L9.60536 9.69269L9.68438 9.94253C9.69462 9.97488 9.65782 10.0016 9.63016 9.98191L9.41696 9.82952L9.20376 9.98191C9.17618 10.0017 9.13934 9.97488 9.14954 9.94253L9.22856 9.69269L9.01778 9.53702C8.99051 9.51687 9.00454 9.47355 9.03848 9.47331L9.30051 9.47128L9.38341 9.22269C9.39423 9.1905 9.43977 9.1905 9.45051 9.22269Z" fill="#F5F5F5"/>
</g>
<defs>
<clipPath id="clip0_2_41">
<rect width="20" height="20" fill="white"/>
</clipPath>
</defs>
</svg>
