<svg width="63" height="65" viewBox="0 0 63 65" fill="none" xmlns="http://www.w3.org/2000/svg">
<g clip-path="url(#clip0_8_806)">
<path d="M27.891 13.9747C30.7853 13.9747 33.1534 11.5728 33.1534 8.63711C33.1534 5.70142 30.7853 3.2995 27.891 3.2995C24.9967 3.2995 22.6287 5.70142 22.6287 8.63711C22.6287 11.5728 24.9967 13.9747 27.891 13.9747ZM18.4188 51.0711L21.05 39.3284L26.5754 44.666V60.6788H31.8378V40.6628L26.3123 35.3252L27.891 27.3187C31.3116 31.322 36.574 33.9908 42.3626 33.9908V28.6531C37.3633 28.6531 33.1534 25.9843 31.0485 22.248L28.4173 17.9779C27.3648 16.3766 25.7861 15.3091 23.9443 15.3091C23.1549 15.3091 22.6287 15.576 21.8393 15.576L8.15716 21.4474V33.9908H13.4195V24.9168L18.1557 23.0487L13.9458 44.666L1.05296 41.9972L0.000488281 47.3348L18.4188 51.0711Z" fill="#F39F00"/>
</g>
<defs>
<clipPath id="clip0_8_806">
<rect width="63" height="64" fill="white" transform="translate(-0.00488281 0.10498)"/>
</clipPath>
</defs>
</svg>
