<svg width="18" height="17" viewBox="0 0 18 17" fill="none" xmlns="http://www.w3.org/2000/svg">
<g clip-path="url(#clip0_8_885)">
<path d="M3 13.1692V8.16131L8.1975 3.25256H1.5C0.675 3.25256 0 3.89006 0 4.66923V14.5859C0 15.3651 0.675 16.0026 1.5 16.0026H12C12.825 16.0026 13.5 15.3651 13.5 14.5859V8.26048L8.3025 13.1692H3Z" fill="black"/>
<path d="M4.5 11.7526H7.68L13.08 6.65263L9.9 3.64929L4.5 8.74929V11.7526Z" fill="black"/>
<path d="M14.9325 2.89134L13.875 1.89259C13.29 1.34009 12.3375 1.34009 11.7525 1.89259L10.9575 2.64342L14.1375 5.64675L14.9325 4.89592C15.525 4.34342 15.525 3.44384 14.9325 2.89134Z" fill="black"/>
</g>
<defs>
<clipPath id="clip0_8_885">
<rect width="18" height="17" fill="white"/>
</clipPath>
</defs>
</svg>
