<svg width="33" height="38" viewBox="0 0 33 38" fill="none" xmlns="http://www.w3.org/2000/svg">
<path d="M16.4047 22.761L12.11 26.9752C10.9808 28.1043 10.3558 29.5762 10.3558 31.1489C10.3558 34.4154 13.0778 37.0769 16.4047 37.0769C19.7317 37.0769 22.4537 34.4154 22.4537 31.1489C22.4537 29.5762 21.8286 28.0841 20.6995 26.9752L16.4047 22.761Z" fill="#0B7933"/>
<path d="M24.4699 8.84839L23.5827 9.95737C21.2035 12.9214 16.4046 11.2478 16.4046 7.43697V0.783112C16.4046 0.783112 0.274048 8.84839 0.274048 22.9626C0.274048 28.8503 3.41951 33.9919 8.11753 36.7946C6.98839 35.2017 6.32301 33.2459 6.32301 31.1489C6.32301 28.4874 7.3715 25.9871 9.287 24.0918L16.4046 17.1153L23.5222 24.1119C25.4377 25.9871 26.4862 28.4874 26.4862 31.1691C26.4862 33.2257 25.8612 35.121 24.7723 36.7139C28.5832 34.3952 31.406 30.544 32.2529 26.0274C33.5837 18.8695 30.0954 12.1148 24.4699 8.84839Z" fill="#0B7933"/>
</svg>
