<svg width="19" height="20" viewBox="0 0 19 20" fill="none" xmlns="http://www.w3.org/2000/svg">
<path d="M14.8438 2.45172C17.1816 4.12164 18.7031 6.83063 18.7031 9.91071C18.7031 14.9947 14.584 19.1138 9.5 19.1138C4.45312 19.1509 0.296875 14.9947 0.296875 9.94781C0.259766 6.86774 1.78125 4.12164 4.11914 2.45172C4.56445 2.11774 5.1582 2.26617 5.41797 2.71149L6.01172 3.75055C6.23438 4.15875 6.12305 4.64117 5.78906 4.90094C4.23047 6.05133 3.26562 7.86969 3.26562 9.91071C3.22852 13.3619 6.01172 16.1451 9.5 16.1451C12.877 16.1451 15.7344 13.399 15.7344 9.8736C15.6973 7.98102 14.8066 6.12555 13.1738 4.90094C12.8398 4.64117 12.7285 4.15875 12.9512 3.75055L13.5449 2.71149C13.8047 2.26617 14.3984 2.11774 14.8438 2.45172ZM10.9844 10.2076C10.9844 10.7271 10.5762 11.0982 10.0938 11.0982H8.90625C8.38672 11.0982 8.01562 10.7271 8.01562 10.2076V1.30133C8.01562 0.818909 8.38672 0.410706 8.90625 0.410706H10.0938C10.5762 0.410706 10.9844 0.818909 10.9844 1.30133V10.2076Z" fill="#878A99"/>
</svg>
