<svg width="58" height="59" viewBox="0 0 58 59" fill="none" xmlns="http://www.w3.org/2000/svg">
<path d="M29.1764 53.2716C25.7931 53.2716 22.6212 52.6272 19.6608 51.3383C16.7004 50.0494 14.1226 48.3074 11.9274 46.1123C9.7323 43.9171 7.99029 41.3394 6.7014 38.3789C5.41251 35.4185 4.76807 32.2466 4.76807 28.8633C4.76807 23.8689 6.14758 19.3376 8.90661 15.2696C11.6656 11.2015 15.3611 8.22095 19.9931 6.32789C20.557 6.1265 21.141 6.05602 21.7451 6.11643C22.3493 6.17685 22.8528 6.36817 23.2556 6.69039C23.5778 6.97234 23.8295 7.36504 24.0108 7.86852C24.192 8.37199 24.2826 9.0265 24.2826 9.83206C24.3632 13.014 25.0076 16.0449 26.216 18.9248C27.4243 21.8046 29.1563 24.3723 31.4118 26.6279C33.6674 28.8834 36.2451 30.6154 39.1451 31.8237C42.0451 33.0321 45.0861 33.6765 48.2681 33.7571C49.1139 33.7571 49.7583 33.8275 50.2014 33.9685C50.6445 34.1095 51.007 34.3411 51.2889 34.6633C51.6111 35.0661 51.8226 35.5897 51.9233 36.2341C52.024 36.8786 51.9736 37.4626 51.7722 37.9862C49.9195 42.6182 46.9389 46.3237 42.8306 49.1029C38.7222 51.8821 34.1708 53.2716 29.1764 53.2716ZM40.4743 17.6258L36.2451 15.6925C35.7618 15.4911 35.5201 15.1286 35.5201 14.605C35.5201 14.0814 35.7618 13.7189 36.2451 13.5175L40.4743 11.5841L42.4076 7.35498C42.609 6.87164 42.9715 6.62998 43.4951 6.62998C44.0188 6.62998 44.3813 6.87164 44.5826 7.35498L46.516 11.5841L50.7451 13.5175C51.2285 13.7189 51.4701 14.0814 51.4701 14.605C51.4701 15.1286 51.2285 15.4911 50.7451 15.6925L46.516 17.6258L44.5826 21.855C44.3813 22.3383 44.0188 22.58 43.4951 22.58C42.9715 22.58 42.609 22.3383 42.4076 21.855L40.4743 17.6258Z" fill="#2B5486"/>
</svg>
