<svg width="34" height="34" viewBox="0 0 34 34" fill="none" xmlns="http://www.w3.org/2000/svg">
<path d="M17.225 33.605C14.9425 33.605 12.7975 33.1719 10.79 32.3056C8.78251 31.4394 7.03626 30.2638 5.55126 28.7788C4.06626 27.2938 2.89063 25.5475 2.02438 23.54C1.15813 21.5325 0.725006 19.3875 0.725006 17.105C0.725006 14.8225 1.15813 12.6775 2.02438 10.67C2.89063 8.66251 4.06626 6.91626 5.55126 5.43126C7.03626 3.94626 8.78251 2.77064 10.79 1.90439C12.7975 1.03814 14.9425 0.605011 17.225 0.605011C19.5075 0.605011 21.6525 1.03814 23.66 1.90439C25.6675 2.77064 27.4138 3.94626 28.8988 5.43126C30.3838 6.91626 31.5594 8.66251 32.4256 10.67C33.2919 12.6775 33.725 14.8225 33.725 17.105C33.725 19.3875 33.2919 21.5325 32.4256 23.54C31.5594 25.5475 30.3838 27.2938 28.8988 28.7788C27.4138 30.2638 25.6675 31.4394 23.66 32.3056C21.6525 33.1719 19.5075 33.605 17.225 33.605ZM17.225 30.305C20.91 30.305 24.0313 29.0263 26.5888 26.4688C29.1463 23.9113 30.425 20.79 30.425 17.105C30.425 13.42 29.1463 10.2988 26.5888 7.74126C24.0313 5.18376 20.91 3.90501 17.225 3.90501C13.54 3.90501 10.4188 5.18376 7.86126 7.74126C5.30376 10.2988 4.02501 13.42 4.02501 17.105C4.02501 20.79 5.30376 23.9113 7.86126 26.4688C10.4188 29.0263 13.54 30.305 17.225 30.305ZM17.225 27.005C14.475 27.005 12.1375 26.0425 10.2125 24.1175C8.28751 22.1925 7.32501 19.855 7.32501 17.105C7.32501 14.355 8.28751 12.0175 10.2125 10.0925C12.1375 8.16751 14.475 7.20501 17.225 7.20501C19.975 7.20501 22.3125 8.16751 24.2375 10.0925C26.1625 12.0175 27.125 14.355 27.125 17.105C27.125 19.855 26.1625 22.1925 24.2375 24.1175C22.3125 26.0425 19.975 27.005 17.225 27.005ZM17.225 23.705C19.04 23.705 20.5938 23.0588 21.8863 21.7663C23.1788 20.4738 23.825 18.92 23.825 17.105C23.825 15.29 23.1788 13.7363 21.8863 12.4438C20.5938 11.1513 19.04 10.505 17.225 10.505C15.41 10.505 13.8563 11.1513 12.5638 12.4438C11.2713 13.7363 10.625 15.29 10.625 17.105C10.625 18.92 11.2713 20.4738 12.5638 21.7663C13.8563 23.0588 15.41 23.705 17.225 23.705ZM17.225 20.405C16.3175 20.405 15.5406 20.0819 14.8944 19.4356C14.2481 18.7894 13.925 18.0125 13.925 17.105C13.925 16.1975 14.2481 15.4206 14.8944 14.7744C15.5406 14.1281 16.3175 13.805 17.225 13.805C18.1325 13.805 18.9094 14.1281 19.5556 14.7744C20.2019 15.4206 20.525 16.1975 20.525 17.105C20.525 18.0125 20.2019 18.7894 19.5556 19.4356C18.9094 20.0819 18.1325 20.405 17.225 20.405Z" fill="#DD0909"/>
</svg>
