<svg width="17" height="19" viewBox="0 0 17 19" fill="none" xmlns="http://www.w3.org/2000/svg">
<path d="M5.95 0.5V2.3H11.05V0.5H12.75V2.3H16.15C16.388 2.3 16.5892 2.387 16.7535 2.561C16.9178 2.735 17 2.948 17 3.2V17.6C17 17.852 16.9178 18.065 16.7535 18.239C16.5892 18.413 16.388 18.5 16.15 18.5H0.85C0.612 18.5 0.410833 18.413 0.2465 18.239C0.0821667 18.065 0 17.852 0 17.6V3.2C0 2.948 0.0821667 2.735 0.2465 2.561C0.410833 2.387 0.612 2.3 0.85 2.3H4.25V0.5H5.95ZM15.3 9.5H1.7V16.7H15.3V9.5ZM5.1 11.3V13.1H3.4V11.3H5.1ZM9.35 11.3V13.1H7.65V11.3H9.35ZM13.6 11.3V13.1H11.9V11.3H13.6ZM4.25 4.1H1.7V7.7H15.3V4.1H12.75V5.9H11.05V4.1H5.95V5.9H4.25V4.1Z" fill="white"/>
</svg>
