<svg width="16" height="16" viewBox="0 0 16 16" fill="none" xmlns="http://www.w3.org/2000/svg">
<path d="M6.05 0.799988V2.29999H10.55V0.799988H12.05V2.29999H15.05C15.26 2.29999 15.4375 2.37249 15.5825 2.51749C15.7275 2.66249 15.8 2.83999 15.8 3.04999V15.05C15.8 15.26 15.7275 15.4375 15.5825 15.5825C15.4375 15.7275 15.26 15.8 15.05 15.8H1.55C1.34 15.8 1.1625 15.7275 1.0175 15.5825C0.872503 15.4375 0.800003 15.26 0.800003 15.05V3.04999C0.800003 2.83999 0.872503 2.66249 1.0175 2.51749C1.1625 2.37249 1.34 2.29999 1.55 2.29999H4.55V0.799988H6.05ZM14.3 8.29999H2.3V14.3H14.3V8.29999ZM5.3 9.79999V11.3H3.8V9.79999H5.3ZM9.05 9.79999V11.3H7.55V9.79999H9.05ZM12.8 9.79999V11.3H11.3V9.79999H12.8ZM4.55 3.79999H2.3V6.79999H14.3V3.79999H12.05V5.29999H10.55V3.79999H6.05V5.29999H4.55V3.79999Z" fill="#3577F1"/>
</svg>
